<?xml version="1.0" encoding="utf-8"?>
<!-- Generator: Adobe Illustrator 22.0.1, SVG Export Plug-In . SVG Version: 6.00 Build 0)  -->
<svg version="1.1" xmlns="http://www.w3.org/2000/svg" xmlns:xlink="http://www.w3.org/1999/xlink" x="0px" y="0px"
	 viewBox="0 0 498.6 496.7" style="enable-background:new 0 0 498.6 496.7;" xml:space="preserve">
<style type="text/css">
	.st0{fill:none;}
	.st1{fill:#00FF00;}
	.st2{clip-path:url(#SVGID_2_);}
	.st3{fill:none;stroke:#00FF00;stroke-width:0.9;stroke-miterlimit:10;}
	.st4{clip-path:url(#SVGID_4_);}
	.st5{fill:none;stroke:#00FF00;stroke-linejoin:round;stroke-miterlimit:10;}
	.st6{fill:none;stroke:#00FF00;stroke-miterlimit:10;}
	.st7{fill:none;stroke:#00FF00;stroke-width:0.8;stroke-linejoin:round;stroke-miterlimit:10;}
	.st8{fill:#44D62C;}
	.st9{clip-path:url(#SVGID_6_);}
</style>
<g id="Layer_1">
</g>
<g id="Layer_2">
	<path class="st8" d="M252.4,501.7c-137.3,0-249-111.7-249-249s111.7-249,249-249s249,111.7,249,249S389.7,501.7,252.4,501.7z
		 M252.4,22.4c-127,0-230.3,103.3-230.3,230.3S125.4,483,252.4,483s230.2-103.3,230.2-230.2S379.4,22.5,252.4,22.4L252.4,22.4z"/>
	<path class="st8" d="M377.5,308.3H127.3c-4.8,0-8.7-3.9-8.7-8.7c0,0,0,0,0,0V147.3c0-9.5,7.7-17.2,17.2-17.3H369
		c9.5,0,17.2,7.8,17.2,17.3v152.2C386.2,304.3,382.3,308.3,377.5,308.3C377.5,308.3,377.5,308.3,377.5,308.3z M136,290.8h232.7
		V147.6h-233L136,290.8z"/>
	<path class="st8" d="M389.5,375.3H115c-9.6,0.1-17.6-7.6-17.8-17.2v-19.4c0-4.8,3.9-8.7,8.7-8.7c0,0,0,0,0.1,0h292.5
		c4.8,0,8.7,3.9,8.7,8.7c0,0,0,0,0,0v19.4C407.1,367.8,399.2,375.5,389.5,375.3L389.5,375.3z M114.7,347.4v10.7l274.8-0.3l0.2-10.5
		H114.7z"/>
	<path class="st8" d="M106,347.4c-1.5,0-2.9-0.4-4.2-1.1c-4.2-2.3-5.8-7.6-3.5-11.8c0,0,0,0,0,0l22.8-41.4c2.5-4.1,7.8-5.5,12-3
		c3.9,2.4,5.4,7.3,3.3,11.4l-22.8,41.4C112.1,345.6,109.2,347.4,106,347.4z"/>
	<path class="st8" d="M398.7,347.4c-3.2,0-6.1-1.7-7.7-4.5l-22.8-41.4c-2.3-4.2-0.8-9.6,3.5-11.9c4.2-2.3,9.6-0.8,11.9,3.5
		l22.8,41.4c2.3,4.2,0.8,9.5-3.5,11.8c0,0,0,0,0,0C401.7,347,400.2,347.4,398.7,347.4z"/>
</g>
</svg>
