<svg xmlns="http://www.w3.org/2000/svg" viewBox="0 0 113 18">
  <g fill="#44D62C" fill-rule="evenodd">
    <polygon points="88.645 0 76 0 76 1.8 87.498 1.8"/>
    <polygon points="63.22 16.02 54.001 16.02 62.086 1.98 63.226 0 60.945 0 50.582 0 50.582 1.98 59.805 1.98 51.721 16.02 50.581 18 52.861 18 62.08 18"/>
    <polygon points="88.645 8 76 8 76 9.8 87.498 9.8"/>
    <polygon points="88.645 16 76 16 76 17.8 87.498 17.8"/>
    <path d="M101.341762 1.98035122L107.549273 1.98035122C108.907685 1.98035122 110.013076 3.08150122 110.013076 4.43555122L110.013076 5.55470122C110.013076 6.90875122 108.907685 8.00990122 107.549273 8.00990122L101.341762 8.00990122 101.341762 1.98035122zM112 5.55470122L112 4.43555122C112 1.98620122 110.006796.000351219512 107.549273.000351219512L101.341762.000351219512 99.3548387.000351219512 99.3548387 9.99035122 99.3548387 18.0003512 101.341762 18.0003512 101.341762 9.99035122 105.065282 9.99035122 109.705774 18.0003512 112 18.0003512 107.359508 9.99035122 107.549273 9.99035122C110.006796 9.99035122 112 8.00450122 112 5.55470122zM1.98692374 1.98035122L8.19443418 1.98035122C9.5528458 1.98035122 10.6582376 3.08150122 10.6582376 4.43555122L10.6582376 5.55470122C10.6582376 6.90875122 9.5528458 8.00990122 8.19443418 8.00990122L1.98692374 8.00990122 1.98692374 1.98035122zM12.6451613 5.55470122L12.6451613 4.43555122C12.6451613 1.98620122 10.6519569.000351219512 8.19443418.000351219512L1.98692374.000351219512 0 .000351219512 0 9.99035122 0 18.0003512 1.98692374 18.0003512 1.98692374 9.99035122 5.71044304 9.99035122 10.3509351 18.0003512 12.6451613 18.0003512 8.00466928 9.99035122 8.19443418 9.99035122C10.6519569 9.99035122 12.6451613 8.00450122 12.6451613 5.55470122z"/>
    <polygon points="25.606 18 30.71 5.286 35.814 18 37.935 18 31.77 2.643 30.71 0 29.649 2.643 23.484 18"/>
  </g>
</svg>
