<svg xmlns="http://www.w3.org/2000/svg" width="29" height="30" viewBox="0 0 29 30">
  <path fill="#44D62C" fill-rule="evenodd" d="M28.8028571,0.571428571 C28.8457143,0.4 28.7742857,0.214285714 28.6314286,0.1 C28.5457143,0.0428571429 28.4457143,0 28.3457143,0 C28.2171429,0 28.1028571,0.0428571429 28.0028571,0.142857143 L27.7457143,0.414285714 L27.26,0.614285714 C27.1742857,0.585714286 27.0885714,0.571428571 26.9885714,0.571428571 C26.9171429,0.571428571 26.8314286,0.585714286 26.76,0.6 C26.7171429,0.614285714 26.6742857,0.614285714 26.6457143,0.614285714 C26.6171429,0.614285714 26.5885714,0.614285714 26.5457143,0.6 C26.4885714,0.585714286 26.3885714,0.571428571 26.2885714,0.571428571 C26.16,0.571428571 26.0171429,0.6 25.8742857,0.642857143 L25.8314286,0.642857143 C25.7171429,0.642857143 25.6028571,0.671428571 25.4457143,0.714285714 C25.2028571,0.8 25.0457143,1 24.9314286,1.14285714 C24.9171429,1.15714286 24.9028571,1.17142857 24.8885714,1.18571429 C24.1742857,1.37142857 23.8885714,1.77142857 23.7885714,2.08571429 C23.76,2.15714286 23.7314286,2.21428571 23.7314286,2.28571429 C23.3457143,1.98571429 22.8885714,1.84285714 22.4028571,1.84285714 C21.66,1.84285714 20.9457143,2.2 20.46,2.8 C19.96,3.41428571 19.7885714,4.21428571 19.9885714,5.02857143 C20.3171429,6.44285714 21.4885714,7.68571429 22.6171429,8.88571429 C23.3457143,9.65714286 24.0314286,10.3857143 24.3885714,11.0571429 C24.8742857,11.9714286 24.7742857,12.6428571 24.1171429,13.0571429 C23.8742857,13.2142857 23.6314286,13.2714286 23.4171429,13.3 C23.7885714,12.2285714 23.6028571,11.0571429 22.8885714,10.2857143 C22.3028571,9.65714286 21.7171429,9.51428571 21.3314286,9.51428571 C20.86,9.51428571 20.56,9.7 20.5028571,9.74285714 C20.3171429,9.85714286 20.2457143,10.0857143 20.3171429,10.2857143 C20.3885714,10.4714286 20.56,10.6 20.76,10.6 L20.8171429,10.6 L20.9171429,10.6 C21.3457143,10.6 21.8028571,10.9142857 22.0457143,11.3857143 C22.2742857,11.8428571 22.26,12.3571429 21.9885714,12.8142857 C21.7742857,12.6428571 21.5885714,12.4428571 21.4314286,12.2857143 C21.36,12.2142857 21.3028571,12.1571429 21.2457143,12.1 C21.2314286,12.0857143 21.2314286,12.0714286 21.2028571,12.0571429 C20.4028571,11.1857143 19.6171429,10.6857143 18.8742857,10.5857143 C18.86,9.31428571 18.0314286,7.91428571 16.7314286,7.02857143 C16.6171429,6.94285714 16.5028571,6.88571429 16.4028571,6.82857143 C16.1028571,4.6 14.4028571,3.42857143 12.8171429,3.42857143 C11.7028571,3.42857143 10.7028571,3.97142857 10.0742857,4.91428571 C9.36,6 8.98857143,7.31428571 8.61714286,8.6 C8.33142857,9.58571429 8.07428571,10.5142857 7.67428571,11.2571429 C7.34571429,11.8714286 6.97428571,12.2428571 6.70285714,12.2428571 C6.60285714,12.2428571 6.50285714,12.2 6.38857143,12.1 C6.16,11.9142857 6.28857143,11.4428571 6.46,10.9 C6.51714286,10.7142857 6.57428571,10.5428571 6.60285714,10.3857143 C6.68857143,9.95714286 6.57428571,9.48571429 6.30285714,9.17142857 C6.06,8.88571429 5.73142857,8.72857143 5.37428571,8.72857143 L5.30285714,8.72857143 C4.40285714,8.77142857 4.06,9.48571429 3.93142857,9.78571429 C3.86,9.61428571 3.76,9.37142857 3.54571429,9.22857143 C3.37428571,9.1 3.26,9.05714286 3.16,9.02857143 C2.88857143,8.84285714 2.70285714,8.81428571 2.51714286,8.78571429 C2.41714286,8.78571429 2.38857143,8.78571429 2.30285714,8.72857143 C2.16,8.64285714 2.01714286,8.6 1.87428571,8.6 L1.78857143,8.6 L1.38857143,8.3 L1.21714286,7.95714286 C1.13142857,7.8 0.96,7.71428571 0.802857143,7.71428571 C0.745714286,7.71428571 0.674285714,7.71428571 0.617142857,7.74285714 C0.445714286,7.81428571 0.345714286,7.97142857 0.331428571,8.14285714 C0.16,8.2 0.0314285714,8.34285714 0.00285714286,8.52857143 C-0.0257142857,8.77142857 0.131428571,8.98571429 0.36,9.04285714 L0.731428571,9.14285714 L1.14571429,9.47142857 C1.17428571,9.62857143 1.26,9.78571429 1.38857143,9.91428571 C1.44571429,9.98571429 1.46,10 1.48857143,10.0857143 C1.54571429,10.2571429 1.63142857,10.4428571 1.87428571,10.6571429 C1.91714286,10.7571429 2.00285714,10.8571429 2.16,10.9857143 C2.36,11.1571429 2.60285714,11.2 2.78857143,11.2285714 C2.80285714,11.2285714 2.83142857,11.2285714 2.84571429,11.2428571 C3.18857143,11.6 3.56,11.7714286 3.94571429,11.7714286 C4.10285714,11.7714286 4.24571429,11.7428571 4.37428571,11.7 C4.30285714,12.2857143 4.46,12.8571429 4.83142857,13.3285714 C5.30285714,13.9428571 6.04571429,14.3 6.83142857,14.3 C7.48857143,14.3 8.10285714,14.0428571 8.61714286,13.5714286 C9.67428571,12.5857143 10.1742857,10.9428571 10.6457143,9.37142857 C10.9457143,8.35714286 11.2314286,7.4 11.6457143,6.75714286 C12.0314286,6.14285714 12.46,5.82857143 12.9171429,5.82857143 C13.1028571,5.82857143 13.3028571,5.88571429 13.5028571,5.98571429 C13.76,6.11428571 13.9314286,6.3 14.06,6.47142857 C12.9314286,6.67142857 12.0171429,7.41428571 11.7171429,8.42857143 C11.3028571,9.78571429 12.0171429,10.5428571 12.4457143,10.7571429 C12.5171429,10.7857143 12.5885714,10.8 12.66,10.8 C12.7885714,10.8 12.9314286,10.7428571 13.0171429,10.6285714 C13.16,10.4571429 13.16,10.2285714 13.0314286,10.0571429 C12.7885714,9.72857143 12.7742857,9.21428571 13.0028571,8.77142857 C13.1314286,8.52857143 13.5028571,7.95714286 14.3457143,7.95714286 L14.36,7.95714286 C14.3171429,8.22857143 14.2457143,8.48571429 14.1742857,8.71428571 C14.1457143,8.81428571 14.1171429,8.88571429 14.1028571,8.95714286 C14.1028571,8.97142857 14.0885714,8.98571429 14.0885714,9.01428571 C13.6742857,10.3285714 13.7457143,11.2 13.9742857,11.7714286 C12.8742857,12.4285714 12.0742857,13.8428571 11.96,15.4 C11.9457143,15.5428571 11.9457143,15.6571429 11.96,15.7714286 C10.3742857,16.9857143 10.1457143,18.6142857 10.4742857,19.7857143 C10.86,21.1714286 12.0314286,22.1285714 13.4742857,22.2142857 C13.6028571,22.2142857 13.7171429,22.2285714 13.8457143,22.2285714 C15.0171429,22.2285714 16.2171429,21.9285714 17.3885714,21.6428571 C18.3885714,21.4 19.3171429,21.1571429 20.16,21.1285714 L20.3171429,21.1285714 C20.8742857,21.1285714 21.3028571,21.2428571 21.46,21.4285714 C21.5028571,21.4857143 21.56,21.5857143 21.5314286,21.8142857 C21.4885714,22.1142857 21.0171429,22.2428571 20.4457143,22.3714286 C20.26,22.4142857 20.0885714,22.4571429 19.9314286,22.5 C19.5028571,22.6428571 19.16,23 19.0171429,23.4142857 C18.8885714,23.7714286 18.9457143,24.1428571 19.1457143,24.4571429 C19.3457143,24.7714286 19.7457143,25.1428571 20.4457143,25.1428571 C20.56,25.1428571 20.66,25.1285714 20.7457143,25.1285714 C20.6314286,25.2714286 20.4742857,25.4714286 20.46,25.7428571 C20.4457143,25.9571429 20.46,26.0714286 20.4885714,26.1857143 C20.46,26.5142857 20.5314286,26.6857143 20.6028571,26.8571429 C20.6314286,26.9428571 20.6457143,26.9571429 20.6457143,27.0714286 C20.6457143,27.2714286 20.7028571,27.4571429 20.8028571,27.5857143 L20.7314286,28.0857143 L20.5314286,28.4 C20.4028571,28.6 20.4457143,28.8714286 20.6314286,29.0142857 C20.7171429,29.0857143 20.8171429,29.1142857 20.9171429,29.1142857 C20.9885714,29.1142857 21.06,29.1 21.1314286,29.0714286 C21.2171429,29.1 21.3314286,29.1428571 21.4457143,29.1428571 C21.5028571,29.1428571 21.5742857,29.1285714 21.6314286,29.1 C21.8457143,29.0142857 21.96,28.7714286 21.9028571,28.5428571 L21.8028571,28.1857143 L21.8742857,27.6571429 C22.0028571,27.5571429 22.0885714,27.4142857 22.1457143,27.2285714 C22.1742857,27.1285714 22.1885714,27.1142857 22.2457143,27.0428571 C22.3742857,26.9 22.4885714,26.7428571 22.5457143,26.4285714 C22.6028571,26.3428571 22.66,26.2142857 22.6885714,26.0142857 C22.7457143,25.7571429 22.6457143,25.5285714 22.5742857,25.3571429 C22.5742857,25.3428571 22.56,25.3142857 22.5457143,25.3 C22.7314286,24.6428571 22.56,24.2142857 22.3742857,23.9714286 C22.3171429,23.8857143 22.2457143,23.8142857 22.1742857,23.7571429 C23.0028571,23.4142857 23.5314286,22.6142857 23.5457143,21.6428571 C23.56,20.4714286 22.8314286,19.5 21.6742857,19.1428571 C21.2742857,19.0142857 20.8314286,18.9571429 20.3171429,18.9571429 C19.26,18.9571429 18.1171429,19.2285714 17.0171429,19.4857143 C16.0457143,19.7142857 15.1314286,19.9285714 14.3885714,19.9285714 L14.2457143,19.9285714 C13.2171429,19.8857143 12.6742857,19.4714286 12.6457143,18.7 C12.6314286,18.4142857 12.7028571,18.1714286 12.7885714,17.9714286 C13.3885714,18.6571429 14.2314286,19.0857143 15.0742857,19.0857143 C15.2742857,19.0857143 15.46,19.0571429 15.66,19.0142857 C17.0457143,18.7 17.3457143,17.7 17.3171429,17.2142857 C17.3028571,17 17.1457143,16.8285714 16.9314286,16.7857143 L16.8457143,16.7857143 C16.66,16.7857143 16.4885714,16.9 16.4171429,17.0714286 C16.2457143,17.4714286 15.76,17.7428571 15.2171429,17.7428571 C14.9457143,17.7428571 14.3028571,17.6571429 13.9171429,16.9714286 C14.1742857,16.8714286 14.4314286,16.8142857 14.66,16.7571429 C14.76,16.7285714 14.8457143,16.7142857 14.9171429,16.6857143 C14.9314286,16.6857143 14.9457143,16.6857143 14.9742857,16.6714286 C16.3171429,16.3714286 17.0314286,15.8714286 17.4028571,15.3857143 C17.9314286,15.6857143 18.5742857,15.8428571 19.2742857,15.8428571 C20.0314286,15.8428571 20.8457143,15.6571429 21.5457143,15.3142857 C21.6742857,15.2571429 21.7742857,15.2 21.8742857,15.1285714 C22.4314286,15.3571429 22.9742857,15.4714286 23.5314286,15.4714286 C24.7885714,15.4714286 25.9171429,14.8571429 26.56,13.8142857 C27.16,12.8428571 27.2171429,11.6428571 26.6885714,10.6 C26.1028571,9.44285714 25.1457143,8.45714286 24.2314286,7.5 C23.5171429,6.75714286 22.8457143,6.07142857 22.4028571,5.35714286 C22.06,4.81428571 21.9171429,4.34285714 22.0028571,4.08571429 C22.0314286,4.01428571 22.0885714,3.91428571 22.3028571,3.82857143 C22.3457143,3.81428571 22.3742857,3.8 22.4171429,3.8 C22.7028571,3.8 23.06,4.2 23.3171429,4.48571429 C23.4457143,4.62857143 23.56,4.75714286 23.6885714,4.85714286 C23.96,5.08571429 24.3171429,5.22857143 24.6742857,5.22857143 C25.16,5.22857143 25.56,4.98571429 25.7742857,4.57142857 C26.1885714,3.75714286 25.7457143,3.11428571 25.5457143,2.85714286 C25.6314286,2.87142857 25.7314286,2.88571429 25.8314286,2.88571429 C25.9742857,2.88571429 26.1028571,2.85714286 26.2171429,2.81428571 C26.4028571,2.72857143 26.5028571,2.65714286 26.5885714,2.57142857 C26.8885714,2.42857143 27.0028571,2.28571429 27.1171429,2.12857143 C27.1742857,2.05714286 27.1885714,2.02857143 27.2742857,1.98571429 C27.4457143,1.88571429 27.5742857,1.74285714 27.6457143,1.58571429 L28.1028571,1.4 L28.4742857,1.41428571 L28.4885714,1.41428571 C28.7171429,1.41428571 28.9171429,1.24285714 28.9457143,1.01428571 C29.0457143,0.842857143 28.96,0.657142857 28.8028571,0.571428571 L28.8028571,0.571428571 Z M28.1028571,0.942857143 L27.3028571,1.25714286 L27.3028571,1.31428571 C27.3028571,1.31428571 27.3028571,1.31428571 27.3028571,1.32857143 C27.2885714,1.34285714 27.2885714,1.35714286 27.2885714,1.35714286 C27.2742857,1.44285714 27.2171429,1.51428571 27.1028571,1.58571429 C26.7028571,1.8 26.86,1.97142857 26.3885714,2.17142857 C26.2885714,2.21428571 26.3742857,2.24285714 26.0742857,2.38571429 C25.86,2.48571429 25.5314286,2.34285714 25.3885714,2.4 C25.3028571,2.42857143 24.8742857,2.62857143 25.1314286,3.04285714 C25.26,3.22857143 25.7171429,3.71428571 25.3885714,4.37142857 C25.1171429,4.91428571 24.4171429,4.85714286 24.0314286,4.52857143 C23.6028571,4.14285714 22.96,3.1 22.1742857,3.4 C21.1742857,3.78571429 21.5742857,4.85714286 22.06,5.57142857 C23.1314286,7.28571429 25.3457143,8.81428571 26.3314286,10.7857143 C27.5457143,13.2142857 24.9885714,16.0571429 21.8742857,14.5714286 C21.7171429,14.7 21.5742857,14.7857143 21.3885714,14.8714286 C20.0457143,15.5285714 18.3171429,15.5714286 17.2885714,14.7 C16.8314286,15.8714286 14.9885714,16.1714286 14.8314286,16.2142857 C14.4885714,16.3142857 13.9028571,16.4142857 13.36,16.7142857 C13.3885714,16.7857143 13.4171429,16.8714286 13.4457143,16.9428571 C14.1885714,18.6714286 16.3742857,18.4142857 16.8885714,17.2285714 C16.8885714,17.2285714 16.9457143,18.2285714 15.5885714,18.5428571 C14.5457143,18.7857143 13.4028571,18.1857143 12.8171429,17.1285714 C12.4885714,17.4714286 12.1885714,18.0285714 12.2171429,18.7 C12.2457143,19.5285714 12.7742857,20.3142857 14.26,20.3714286 C16.2742857,20.4428571 19.4171429,18.9 21.56,19.5571429 C23.5742857,20.1857143 23.5457143,22.8857143 21.7885714,23.3714286 C21.26,23.5285714 20.9314286,23.5714286 20.7028571,23.6285714 C20.56,23.6714286 20.5457143,23.8857143 20.9171429,23.8285714 C21.2171429,23.7857143 22.5171429,23.8857143 22.0885714,25.2428571 C22.0314286,25.3857143 22.2742857,25.7 22.2314286,25.9142857 C22.16,26.2428571 22.1028571,26.1714286 22.0885714,26.2714286 C22.0028571,26.7714286 21.7885714,26.6714286 21.6742857,27.1 C21.6314286,27.2714286 21.5314286,27.3428571 21.4314286,27.3571429 L21.3028571,28.2142857 L21.4314286,28.6714286 L21.2171429,28.2857143 L20.9171429,28.6 L21.1742857,28.2 L21.3028571,27.3571429 C21.2742857,27.3428571 21.26,27.3428571 21.2457143,27.3285714 L21.2314286,27.3142857 C21.2171429,27.3142857 21.2171429,27.3 21.2171429,27.3 C21.16,27.2428571 21.1171429,27.1571429 21.1171429,27.0285714 C21.1314286,26.5857143 20.9028571,26.6142857 20.96,26.1142857 C20.9742857,26.0142857 20.9028571,26.0714286 20.9314286,25.7428571 C20.9457143,25.5142857 21.2314286,25.2857143 21.26,25.1428571 C21.2742857,25.0428571 21.3171429,24.5857143 20.8314286,24.6142857 C20.6028571,24.6285714 19.9457143,24.7857143 19.5457143,24.1714286 C19.2028571,23.6571429 19.6171429,23.0857143 20.0885714,22.9142857 C20.6314286,22.7142857 21.86,22.6857143 21.9885714,21.8571429 C22.1457143,20.8 21.0171429,20.6142857 20.1314286,20.6428571 C18.1171429,20.7 15.7028571,21.8571429 13.4885714,21.7285714 C10.7885714,21.5714286 9.60285714,17.9428571 12.4457143,15.9857143 C12.4171429,15.7857143 12.4171429,15.6285714 12.4314286,15.4142857 C12.5457143,13.9285714 13.36,12.4142857 14.6314286,11.9571429 C13.86,10.9857143 14.5171429,9.22857143 14.56,9.07142857 C14.6457143,8.71428571 14.86,8.15714286 14.86,7.54285714 C14.7742857,7.52857143 14.7028571,7.51428571 14.6171429,7.5 C12.7457143,7.28571429 11.8742857,9.3 12.6314286,10.3571429 C12.6314286,10.3571429 11.7457143,9.91428571 12.1457143,8.57142857 C12.46,7.54285714 13.5457143,6.84285714 14.76,6.87142857 C14.6314286,6.42857143 14.3028571,5.88571429 13.7028571,5.57142857 C12.96,5.17142857 12.0314286,5.24285714 11.2314286,6.5 C10.16,8.21428571 9.93142857,11.7 8.28857143,13.2285714 C6.74571429,14.6714286 4.41714286,13.3 4.87428571,11.5285714 C5.01714286,11 5.14571429,10.6857143 5.20285714,10.4571429 C5.23142857,10.3142857 5.04571429,10.1857143 4.91714286,10.5428571 C4.81714286,10.8285714 4.07428571,11.8857143 3.11714286,10.8428571 C3.01714286,10.7428571 2.63142857,10.8 2.46,10.6428571 C2.21714286,10.4285714 2.30285714,10.4142857 2.21714286,10.3571429 C1.83142857,10.0285714 2.01714286,9.9 1.71714286,9.58571429 C1.58857143,9.45714286 1.57428571,9.32857143 1.63142857,9.22857143 L0.945714286,8.7 L0.474285714,8.58571429 L0.917142857,8.58571429 L0.802857143,8.17142857 L1.01714286,8.6 L1.68857143,9.12857143 C1.71714286,9.11428571 1.73142857,9.1 1.74571429,9.1 C1.74571429,9.08571429 1.76,9.08571429 1.76,9.08571429 L1.78857143,9.08571429 C1.86,9.05714286 1.96,9.05714286 2.07428571,9.12857143 C2.44571429,9.35714286 2.53142857,9.14285714 2.93142857,9.44285714 C3.01714286,9.51428571 3.01714286,9.41428571 3.27428571,9.61428571 C3.46,9.74285714 3.50285714,10.1 3.63142857,10.2 C3.70285714,10.2571429 4.08857143,10.5142857 4.30285714,10.0857143 C4.40285714,9.88571429 4.60285714,9.22857143 5.31714286,9.2 C5.91714286,9.15714286 6.23142857,9.8 6.13142857,10.3 C6.01714286,10.8714286 5.43142857,11.9428571 6.08857143,12.4714286 C6.93142857,13.1428571 7.66,12.2571429 8.07428571,11.4714286 C9.03142857,9.7 9.24571429,7.01428571 10.46,5.17142857 C11.9457143,2.91428571 15.6885714,3.71428571 15.96,7.14285714 C16.1457143,7.22857143 16.2885714,7.3 16.46,7.41428571 C17.6885714,8.24285714 18.6028571,9.71428571 18.36,11.0428571 C19.6028571,10.8571429 20.7885714,12.3 20.9028571,12.4142857 C21.16,12.6714286 21.5457143,13.1285714 22.0742857,13.4428571 C22.1314286,13.3857143 22.1885714,13.3285714 22.2314286,13.2571429 C23.36,11.7428571 22.0457143,9.98571429 20.76,10.1285714 C20.76,10.1285714 21.5885714,9.58571429 22.5457143,10.6 C23.2885714,11.3857143 23.3457143,12.6857143 22.7171429,13.7142857 C23.1742857,13.8142857 23.8028571,13.8 24.3742857,13.4428571 C25.0885714,13 25.5028571,12.1428571 24.8028571,10.8285714 C23.86,9.04285714 20.9457143,7.1 20.4457143,4.91428571 C19.9742857,2.84285714 22.3314286,1.51428571 23.6314286,2.8 C24.0171429,3.18571429 24.2171429,3.45714286 24.3885714,3.61428571 C24.4885714,3.71428571 24.6885714,3.61428571 24.4457143,3.32857143 C24.26,3.1 23.7028571,1.91428571 25.0885714,1.61428571 C25.2314286,1.58571429 25.3742857,1.22857143 25.5885714,1.15714286 C25.8885714,1.05714286 25.86,1.14285714 25.96,1.1 C26.4314286,0.928571429 26.4457143,1.15714286 26.8742857,1.04285714 C27.0457143,1 27.16,1.05714286 27.2171429,1.14285714 L28.0171429,0.814285714 L28.3457143,0.471428571 L28.1171429,0.857142857 L28.5457143,0.957142857 L28.1028571,0.942857143 Z M17.6457143,12.7571429 C17.46,13.1 17.8171429,13.8 18.8028571,14.1 C19.4742857,14.3142857 20.36,14.3428571 21.1171429,14.0714286 C20.9885714,13.9714286 20.8742857,13.8714286 20.7742857,13.7857143 C20.0028571,13.1142857 18.2742857,11.6142857 17.6457143,12.7571429 Z M19.9171429,13.8 C19.5742857,13.8 19.2314286,13.7571429 18.9314286,13.6571429 C18.26,13.4571429 18.06,13.0714286 18.06,12.9714286 C18.1457143,12.8285714 18.2171429,12.8 18.3314286,12.8 C18.8028571,12.8 19.5457143,13.3571429 20.0742857,13.7857143 C20.0171429,13.8 19.9742857,13.8 19.9171429,13.8 Z M15.8742857,8.05714286 C15.86,8.22857143 15.8314286,8.37142857 15.8028571,8.5 C15.6028571,9.5 15.16,11.7428571 16.4742857,11.7142857 C16.8742857,11.7142857 17.2885714,11.0571429 17.06,10.0428571 C16.9028571,9.34285714 16.4885714,8.57142857 15.8742857,8.05714286 Z M16.4457143,11.2571429 C16.3028571,11.2571429 16.2457143,11.2142857 16.2028571,11.1571429 C15.9314286,10.8142857 16.0457143,9.8 16.16,9.1 C16.36,9.42857143 16.5171429,9.78571429 16.6028571,10.1571429 C16.76,10.8428571 16.5314286,11.2142857 16.4457143,11.2571429 Z M14.4314286,13.5714286 C13.9028571,14.0571429 13.4457143,14.8 13.3028571,15.6 C13.4457143,15.5428571 13.5885714,15.4857143 13.7171429,15.4428571 C14.6742857,15.1142857 16.8457143,14.3714286 16.1742857,13.2428571 C15.9742857,12.9 15.1885714,12.8571429 14.4314286,13.5714286 Z M15.8028571,13.7571429 C15.6457143,14.1857143 14.7028571,14.5857143 14.0457143,14.8285714 C14.2171429,14.4857143 14.46,14.1714286 14.7314286,13.9142857 C15.0314286,13.6428571 15.36,13.4714286 15.6171429,13.4714286 C15.7028571,13.4714286 15.7457143,13.4857143 15.76,13.5 C15.8457143,13.6285714 15.8314286,13.7 15.8028571,13.7571429 Z"/>
</svg>
